<?xml version="1.0" standalone="no"?>
<!DOCTYPE svg PUBLIC "-//W3C//DTD SVG 20010904//EN"
 "http://www.w3.org/TR/2001/REC-SVG-20010904/DTD/svg10.dtd">
<svg version="1.0" xmlns="http://www.w3.org/2000/svg"
 width="400.000000pt" height="400.000000pt" viewBox="0 0 400.000000 400.000000"
 preserveAspectRatio="xMidYMid meet">
<metadata>
Created by potrace 1.11, written by Peter Selinger 2001-2013
</metadata>
<g transform="translate(0.000000,400.000000) scale(0.100000,-0.100000)"
fill="#000000" stroke="none">
<path d="M1830 2601 c-32 -16 -100 -92 -100 -110 0 -4 31 -13 69 -20 252 -45
398 -243 336 -457 -31 -110 -75 -171 -200 -280 -61 -54 -90 -88 -111 -130 -35
-71 -37 -134 -5 -168 52 -55 213 -74 314 -36 102 38 155 121 205 319 23 92 26
126 26 256 0 161 -12 213 -69 311 -29 49 -113 128 -167 155 -21 11 -38 27 -38
36 0 9 -9 36 -21 59 -36 76 -157 109 -239 65z"/>
<path d="M2562 2494 l-23 -16 49 -23 c28 -13 60 -37 73 -54 28 -38 39 -32 39
23 0 32 -6 48 -23 64 -28 26 -82 29 -115 6z"/>
<path d="M1210 2264 c-75 -33 -110 -86 -110 -168 0 -47 4 -60 30 -90 27 -30
94 -65 105 -54 2 2 0 21 -5 43 -20 86 -4 183 41 247 11 14 19 29 19 32 0 11
-45 5 -80 -10z"/>
<path d="M2689 2217 c-51 -34 -94 -105 -119 -199 -29 -107 -46 -140 -114 -216
-31 -34 -59 -74 -62 -87 -17 -67 35 -157 121 -210 42 -26 58 -30 120 -30 62 0
78 4 120 30 95 60 139 183 139 395 0 147 -15 206 -69 280 -46 63 -83 73 -136
37z"/>
<path d="M1733 2200 c-44 -26 -65 -63 -67 -111 -1 -47 20 -69 68 -69 51 0 108
-40 125 -85 8 -22 16 -42 19 -45 2 -3 19 12 37 33 81 93 62 233 -39 281 -46
22 -104 20 -143 -4z"/>
<path d="M1374 1970 c-48 -15 -69 -45 -69 -99 0 -60 35 -110 101 -142 50 -24
131 -36 161 -24 16 6 15 8 -9 21 -43 23 -61 67 -60 150 1 45 -3 76 -11 82 -19
16 -79 22 -113 12z"/>
<path d="M1603 1912 c-29 -9 -63 -38 -63 -54 0 -29 41 -58 79 -58 22 0 51 45
51 79 0 16 -29 44 -42 40 -2 -1 -13 -4 -25 -7z"/>
<path d="M1347 1653 c-10 -10 -8 -62 3 -83 27 -50 239 -67 298 -23 46 35 38
40 -62 45 -82 3 -103 8 -157 36 -66 34 -72 36 -82 25z"/>
</g>
</svg>
